<svg width="54" height="8" viewBox="0 0 54 8" fill="none" xmlns="http://www.w3.org/2000/svg">
<g clip-path="url(#clip0_34_90)">
<path d="M2.25666 7.80508C2.01541 7.90408 1.74166 7.73058 1.79041 7.50908L2.30916 5.14408L0.107283 3.46608C-0.0983416 3.30908 0.00853339 3.02208 0.284158 2.99108L3.34541 2.64308L4.71041 0.479578C4.83353 0.284578 5.16666 0.284578 5.28978 0.479578L6.65478 2.64308L9.71603 2.99108C9.99166 3.02208 10.0985 3.30908 9.89228 3.46608L7.69103 5.14408L8.20978 7.50908C8.25853 7.73058 7.98478 7.90408 7.74353 7.80508L4.99916 6.67708L2.25603 7.80508H2.25666Z" fill="#FDE404"/>
</g>
<g clip-path="url(#clip1_34_90)">
<path d="M12.2567 7.80508C12.0154 7.90408 11.7417 7.73058 11.7904 7.50908L12.3092 5.14408L10.1073 3.46608C9.90166 3.30908 10.0085 3.02208 10.2842 2.99108L13.3454 2.64308L14.7104 0.479578C14.8335 0.284578 15.1667 0.284578 15.2898 0.479578L16.6548 2.64308L19.716 2.99108C19.9917 3.02208 20.0985 3.30908 19.8923 3.46608L17.691 5.14408L18.2098 7.50908C18.2585 7.73058 17.9848 7.90408 17.7435 7.80508L14.9992 6.67708L12.256 7.80508H12.2567Z" fill="#FDE404"/>
</g>
<g clip-path="url(#clip2_34_90)">
<path d="M22.2567 7.80508C22.0154 7.90408 21.7417 7.73058 21.7904 7.50908L22.3092 5.14408L20.1073 3.46608C19.9017 3.30908 20.0085 3.02208 20.2842 2.99108L23.3454 2.64308L24.7104 0.479578C24.8335 0.284578 25.1667 0.284578 25.2898 0.479578L26.6548 2.64308L29.716 2.99108C29.9917 3.02208 30.0985 3.30908 29.8923 3.46608L27.691 5.14408L28.2098 7.50908C28.2585 7.73058 27.9848 7.90408 27.7435 7.80508L24.9992 6.67708L22.256 7.80508H22.2567Z" fill="#FDE404"/>
</g>
<g clip-path="url(#clip3_34_90)">
<path d="M34.2567 7.80508C34.0154 7.90408 33.7417 7.73058 33.7904 7.50908L34.3092 5.14408L32.1073 3.46608C31.9017 3.30908 32.0085 3.02208 32.2842 2.99108L35.3454 2.64308L36.7104 0.479578C36.8335 0.284578 37.1667 0.284578 37.2898 0.479578L38.6548 2.64308L41.716 2.99108C41.9917 3.02208 42.0985 3.30908 41.8923 3.46608L39.691 5.14408L40.2098 7.50908C40.2585 7.73058 39.9848 7.90408 39.7435 7.80508L36.9992 6.67708L34.256 7.80508H34.2567Z" fill="#FDE404"/>
</g>
<g clip-path="url(#clip4_34_90)">
<path d="M47.3456 2.64283L48.7106 0.479328C48.7368 0.435805 48.7778 0.399045 48.8289 0.373233C48.8799 0.347421 48.939 0.333595 48.9994 0.333328C49.1138 0.333328 49.2281 0.381828 49.29 0.479328L50.655 2.64283L53.7163 2.99083C53.7926 3.00042 53.8624 3.03078 53.914 3.07678C53.9655 3.12278 53.9957 3.1816 53.9994 3.24333C54.0037 3.28442 53.9965 3.32577 53.9781 3.3643C53.9597 3.40282 53.9306 3.43753 53.8931 3.46583L51.6913 5.14383L52.21 7.50883C52.2588 7.73033 51.985 7.90383 51.7438 7.80483L48.9994 6.67683L46.2563 7.80483C46.2276 7.81675 46.1968 7.82517 46.165 7.82983C45.9513 7.85983 45.7475 7.70283 45.79 7.50883L46.3088 5.14383L44.1075 3.46583C44.0733 3.43993 44.0461 3.40868 44.0276 3.37401C44.0091 3.33935 43.9997 3.30202 44 3.26433C44 3.21105 44.0184 3.1588 44.0531 3.11333C44.0778 3.08036 44.1113 3.05224 44.1513 3.03104C44.1914 3.00984 44.2368 2.9961 44.2844 2.99083L47.3456 2.64283ZM48.9994 6.09683C49.0498 6.09666 49.0996 6.10627 49.1444 6.12483L51.4481 7.07183L51.0144 5.09333C51.0041 5.04783 51.008 5.00101 51.0257 4.95698C51.0433 4.91296 51.0742 4.87307 51.1156 4.84083L52.9325 3.45583L50.4 3.16783C50.3476 3.16149 50.2978 3.14508 50.255 3.12C50.2123 3.09492 50.1777 3.06192 50.1544 3.02383L49 1.19483L48.9994 1.19633V6.09633V6.09683Z" fill="#FDE404"/>
</g>
<defs>
<clipPath id="clip0_34_90">
<rect width="10" height="8" fill="white"/>
</clipPath>
<clipPath id="clip1_34_90">
<rect width="10" height="8" fill="white" transform="translate(10)"/>
</clipPath>
<clipPath id="clip2_34_90">
<rect width="10" height="8" fill="white" transform="translate(20)"/>
</clipPath>
<clipPath id="clip3_34_90">
<rect width="10" height="8" fill="white" transform="translate(32)"/>
</clipPath>
<clipPath id="clip4_34_90">
<rect width="10" height="8" fill="white" transform="translate(44)"/>
</clipPath>
</defs>
</svg>
